<?xml version="1.0" encoding="utf-8"?>
<!DOCTYPE svg PUBLIC "-//W3C//DTD SVG 1.1//EN" "http://www.w3.org/Graphics/SVG/1.1/DTD/svg11.dtd">
<svg version="1.1" xmlns="http://www.w3.org/2000/svg" xmlns:xlink="http://www.w3.org/1999/xlink" viewBox="-200 -200 912 912" xml:space="preserve">
<path d="M469.5,0H44.755C20.697,0,0,18.838,0,42.891v424.745C0,491.689,20.697,512,44.755,512H469.5
  c24.059,0,42.5-20.311,42.5-44.364V42.891C512,18.838,493.558,0,469.5,0z M490.213,468.372c0,12.061-9.778,21.84-21.84,21.84
  H43.628c-12.063,0-21.84-9.779-21.84-21.84V43.628c0-12.061,9.778-21.84,21.84-21.84h424.745c12.063,0,21.84,9.779,21.84,21.84
  V468.372z" fill="currentColor"/>
<path d="M436.872,65.362H327.936c-6.016,0-10.894,4.872-10.894,10.894s4.878,10.894,10.894,10.894h82.638L298.447,198.91
  c-4.255,4.255-4.255,10.963,0,15.218c2.128,2.128,4.915,3.101,7.702,3.101c2.787,0,5.01-1.109,7.138-3.237l111.564-112.176v82.638
  c0,6.021,4.878,10.894,10.894,10.894s10.894-4.872,10.894-10.894V75.519C446.638,69.497,442.888,65.362,436.872,65.362z" fill="currentColor"/>
<path d="M226.42,285.872c-4.255-4.255-11.431-4.439-15.686-0.184L98.043,397.816v-82.638c0-6.021-4.878-10.894-10.894-10.894
  s-10.894,4.872-10.894,10.894v108.936c0,0.715,0.638,1.428,0.779,2.133c0.066,0.338,0.474,0.652,0.572,0.979
  c0.105,0.351,0.326,0.71,0.467,1.05c0.168,0.404,0.463,0.771,0.675,1.149c0.134,0.239,0.274,0.492,0.427,0.723
  c0.8,1.199,1.85,2.231,3.05,3.032c0.234,0.154,0.496,0.261,0.739,0.396c0.375,0.21,0.745,0.434,1.146,0.601
  c0.342,0.141,0.701,0.221,1.053,0.327c0.327,0.096,0.641,0.59,0.979,0.657c0.703,0.141,1.419,0.583,2.133,0.583h108.936
  c6.016,0,10.894-4.872,10.894-10.894s-4.878-10.894-10.894-10.894h-82.638l112.128-112.495
  C230.958,297.208,230.676,290.128,226.42,285.872z" fill="currentColor"/>
</svg>