<?xml version="1.0" encoding="utf-8"?>
<!DOCTYPE svg PUBLIC "-//W3C//DTD SVG 1.1//EN" "http://www.w3.org/Graphics/SVG/1.1/DTD/svg11.dtd">
<svg version="1.1" xmlns="http://www.w3.org/2000/svg" xmlns:xlink="http://www.w3.org/1999/xlink" x="0px" y="0px"
	 width="907.62px" height="907.619px" viewBox="0 0 907.62 907.619"
	 xml:space="preserve">
<g>
	<path d="M591.672,907.618c28.995,0,52.5-23.505,52.5-52.5V179.839l42.191,41.688c10.232,10.11,23.567,15.155,36.898,15.155
		c13.541,0,27.078-5.207,37.347-15.601c20.379-20.625,20.18-53.865-0.445-74.244L626.892,15.155C617.062,5.442,603.803,0,589.993,0
		c-0.104,0-0.211,0-0.314,0.001c-13.923,0.084-27.244,5.694-37.03,15.6l-129.913,131.48c-20.379,20.625-20.18,53.865,0.445,74.244
		c20.626,20.381,53.866,20.181,74.245-0.445l41.747-42.25v676.489C539.172,884.113,562.677,907.618,591.672,907.618z"/>
	<path d="M315.948,0c-28.995,0-52.5,23.505-52.5,52.5v676.489l-41.747-42.25c-20.379-20.625-53.62-20.825-74.245-0.445
		c-20.625,20.379-20.825,53.619-0.445,74.244l129.912,131.479c9.787,9.905,23.106,15.518,37.029,15.601
		c0.105,0.001,0.21,0.001,0.315,0.001c13.81,0,27.07-5.442,36.899-15.155L484.44,760.78c20.625-20.379,20.824-53.619,0.445-74.244
		c-20.379-20.626-53.62-20.825-74.245-0.445l-42.192,41.688V52.5C368.448,23.505,344.943,0,315.948,0z"/>
</g>
</svg>
