<!-- Note: This is the official nebula rss icon -->
<svg width="32" height="32" viewBox="0 0 32 32" fill="none" xmlns="http://www.w3.org/2000/svg"><title>rss</title><g clip-path="url(#clip0_1306_8016)"><path d="M16 32C7.2 32 0 24.8 0 16C0 7.2 7.2 0 16 0C24.8 0 32 7.2 32 16C32 24.8 24.8 32 16 32Z" fill="currentColor"></path><path d="M-0.5 16C-0.5 25.0761 6.92386 32.5 16 32.5C25.0761 32.5 32.5 25.0761 32.5 16C32.5 6.92386 25.0761 -0.5 16 -0.5C6.92386 -0.5 -0.5 6.92386 -0.5 16Z" stroke="#CCCCCC" stroke-opacity="0.1"></path><path d="M21.9 22.3C21.4 22.3 21 21.9 21 21.4C21 15.6 16.4 11 10.7 11C10.2 11 9.8 10.6 9.8 10.1C9.8 9.60001 10.2 9.20001 10.7 9.20001C17.4 9.20001 22.9 14.7 22.9 21.4C22.9 21.8 22.4 22.3 21.9 22.3ZM17.9 21.3C17.9 17.3 14.7 14.1 10.7 14.1C10.2 14.1 9.8 14.5 9.8 15C9.8 15.5 10.2 15.9 10.7 15.9C13.6 15.9 16 18.3 16 21.2C16 21.7 16.4 22.1 16.9 22.1C17.4 22.1 17.9 21.8 17.9 21.3ZM12.9 20.7C12.9 19.8 12.2 19.1 11.3 19.1C10.4 19.1 9.7 19.8 9.7 20.7C9.7 21.6 10.4 22.3 11.3 22.3C12.2 22.3 12.9 21.6 12.9 20.7Z" fill="white"></path></g><defs><clipPath id="clip0_1306_8016"><rect width="32" height="32" fill="white"></rect></clipPath></defs></svg>