<?xml version="1.0" encoding="utf-8"?>
<!DOCTYPE svg PUBLIC "-//W3C//DTD SVG 1.1//EN" "http://www.w3.org/Graphics/SVG/1.1/DTD/svg11.dtd">
<svg version="1.1" xmlns="http://www.w3.org/2000/svg" xmlns:xlink="http://www.w3.org/1999/xlink" x="0px" y="0px" viewBox="0 0 1000 1000" xml:space="preserve">
<g><path d="M707,707l39.1-64.4L525.3,509.1V253.8h-73.6v294.4L707,707z M500,10c135,0,250.4,47.9,346.2,143.8C942.1,249.6,990,365,990,500c0,135-47.9,250.4-143.8,346.2C750.4,942.1,635,990,500,990c-135,0-250.4-47.9-346.2-143.8C57.9,750.4,10,635,10,500c0-135,47.9-250.4,143.8-346.2C249.6,57.9,365,10,500,10L500,10z"/></g>
</svg>