<?xml version="1.0" encoding="utf-8"?>
<!DOCTYPE svg PUBLIC "-//W3C//DTD SVG 1.1//EN" "http://www.w3.org/Graphics/SVG/1.1/DTD/svg11.dtd">
<svg version="1.1" xmlns="http://www.w3.org/2000/svg" xmlns:xlink="http://www.w3.org/1999/xlink" x="0px" y="0px" viewBox="0 0 1000 1000" xml:space="preserve">
<path id="main" d="M 707,707 746.1,642.6 525.3,509.1 V 253.8 H 451.7 V 548.2 Z M 500,10 C 635,10 750.4,57.9 846.2,153.8 942.1,249.6 990,365 990,500 990,635 942.1,750.4 846.2,846.2 750.4,942.09996 635,989.99996 500,989.99996 365,989.99996 249.6,942.09996 153.8,846.2 57.9,750.4 10,635 10,500 10,365 57.9,249.6 153.8,153.8 249.6,57.9 365,10 500,10 Z" />
<path id="outline" d="M 500 10 C 365 10 249.60078 57.900787 153.80078 153.80078 C 57.900781 249.60078 10 365 10 500 C 10 635 57.900781 750.39922 153.80078 846.19922 C 249.60078 942.09918 365 990 500 990 C 635 990 750.39922 942.09918 846.19922 846.19922 C 942.09922 750.39922 990 635 990 500 C 990 365 942.09922 249.60078 846.19922 153.80078 C 750.39922 57.900787 635 10 500 10 z M 500 70 C 618.46939 70 719.7392 112.03427 803.80859 196.19141 C 887.96576 280.2608 930 381.53061 930 500 C 930 618.46939 887.96576 719.7392 803.80859 803.80859 C 719.7392 887.9657 618.46939 930 500 930 C 381.53061 930 280.2608 887.9657 196.19141 803.80859 C 112.03427 719.7392 70 618.46939 70 500 C 70 381.53061 112.03427 280.2608 196.19141 196.19141 C 280.2608 112.03427 381.53061 70 500 70 z " />
<path id="inner" d="M707,707l39.1-64.4L525.3,509.1V253.8h-73.6v294.4L707,707z" />
</svg>