<!-- Note: This is the official nebula settings icon -->
<?xml version="1.0" encoding="utf-8"?>
<!DOCTYPE svg PUBLIC "-//W3C//DTD SVG 1.1//EN" "http://www.w3.org/Graphics/SVG/1.1/DTD/svg11.dtd">
<svg width="32" height="32" viewBox="0 0 32 32" fill="none" xmlns="http://www.w3.org/2000/svg">
<path d="M23.62 18.1C23.699 18.1577 23.7528 18.2437 23.77 18.34C23.7849 18.4331 23.7672 18.5284 23.72 18.61L22.12 21.39C22.0725 21.4699 21.998 21.5302 21.91 21.56C21.8199 21.5947 21.7201 21.5947 21.63 21.56L19.63 20.76C19.2153 21.0769 18.7616 21.339 18.28 21.54L18 23.66C17.9863 23.7551 17.9361 23.8412 17.86 23.9C17.8258 23.9336 17.7851 23.9598 17.7404 23.977C17.6957 23.9942 17.6479 24.002 17.6 24H14.4C14.3521 24.002 14.3043 23.9942 14.2596 23.977C14.2149 23.9598 14.1742 23.9336 14.14 23.9C14.0639 23.8412 14.0137 23.7551 14 23.66L13.7 21.54C13.2206 21.3346 12.7674 21.0727 12.35 20.76L10.35 21.56C10.2599 21.5947 10.1601 21.5947 10.07 21.56C9.98198 21.5302 9.90751 21.4699 9.86 21.39L8.26 18.61C8.22497 18.5234 8.22497 18.4266 8.26 18.34C8.26448 18.2922 8.27933 18.246 8.30351 18.2045C8.32769 18.1631 8.36062 18.1274 8.4 18.1L10.08 16.78C10.08 16.48 10.03 16.22 10.03 16C10.03 15.78 10.03 15.52 10.08 15.22L8.37 13.9C8.33062 13.8726 8.29769 13.8369 8.27351 13.7954C8.24933 13.754 8.23448 13.7078 8.23 13.66C8.19497 13.5734 8.19497 13.4766 8.23 13.39L9.83 10.61C9.87751 10.5301 9.95198 10.4698 10.04 10.44C10.1301 10.4053 10.2299 10.4053 10.32 10.44L12.32 11.24C12.7347 10.9231 13.1884 10.661 13.67 10.46L14 8.34C14.0137 8.24485 14.0639 8.15877 14.14 8.1C14.1742 8.06642 14.2149 8.04022 14.2596 8.02302C14.3043 8.00582 14.3521 7.99798 14.4 8H17.59C17.6379 7.99798 17.6857 8.00582 17.7304 8.02302C17.7751 8.04022 17.8158 8.06642 17.85 8.1C17.929 8.1577 17.9828 8.24367 18 8.34L18.3 10.46C18.7794 10.6654 19.2326 10.9273 19.65 11.24L21.65 10.44C21.7366 10.405 21.8334 10.405 21.92 10.44C22.008 10.4698 22.0825 10.5301 22.13 10.61L23.74 13.39C23.775 13.4766 23.775 13.5734 23.74 13.66C23.7219 13.7536 23.6725 13.8382 23.6 13.9L21.91 15.22C21.9767 15.7379 21.9767 16.2621 21.91 16.78L23.62 18.1ZM17.4 18.42C17.8142 18.1788 18.1588 17.8342 18.4 17.42C18.6429 16.9934 18.7705 16.5109 18.7705 16.02C18.7705 15.5291 18.6429 15.0466 18.4 14.62C18.1556 14.1941 17.8032 13.8402 17.3783 13.5941C16.9534 13.348 16.471 13.2184 15.98 13.2184C15.489 13.2184 15.0066 13.348 14.5817 13.5941C14.1568 13.8402 13.8044 14.1941 13.56 14.62C13.1908 15.2603 13.0887 16.0202 13.2759 16.7353C13.4631 17.4503 13.9244 18.0627 14.56 18.44C14.9865 18.6886 15.4713 18.8196 15.965 18.8196C16.4587 18.8196 16.9435 18.6886 17.37 18.44L17.4 18.42Z" fill="currentColor" />
</svg>