<!-- Note: This is the official nebula subtitles icon -->
<?xml version="1.0" encoding="utf-8"?>
<!DOCTYPE svg PUBLIC "-//W3C//DTD SVG 1.1//EN" "http://www.w3.org/Graphics/SVG/1.1/DTD/svg11.dtd">
<svg width="32" height="32" viewBox="0 0 32 32" fill="none" xmlns="http://www.w3.org/2000/svg">
<path d="M23.7 8H8.3C7.42479 8 6.58542 8.36122 5.96655 9.0042C5.34768 9.64719 5 10.5193 5 11.4286V20.5714C5 21.4807 5.34768 22.3528 5.96655 22.9958C6.58542 23.6388 7.42479 24 8.3 24H23.7C24.5752 24 25.4146 23.6388 26.0335 22.9958C26.6523 22.3528 27 21.4807 27 20.5714V11.4286C27 10.5193 26.6523 9.64719 26.0335 9.0042C25.4146 8.36122 24.5752 8 23.7 8ZM8.3 17.1429H12.15C12.2959 17.1429 12.4358 17.2031 12.5389 17.3102C12.6421 17.4174 12.7 17.5627 12.7 17.7143C12.7 17.8658 12.6421 18.0112 12.5389 18.1183C12.4358 18.2255 12.2959 18.2857 12.15 18.2857H8.3C8.15413 18.2857 8.01424 18.2255 7.91109 18.1183C7.80795 18.0112 7.75 17.8658 7.75 17.7143C7.75 17.5627 7.80795 17.4174 7.91109 17.3102C8.01424 17.2031 8.15413 17.1429 8.3 17.1429ZM16.55 21.7143H8.3C8.15413 21.7143 8.01424 21.6541 7.91109 21.5469C7.80795 21.4398 7.75 21.2944 7.75 21.1429C7.75 20.9913 7.80795 20.846 7.91109 20.7388C8.01424 20.6316 8.15413 20.5714 8.3 20.5714H16.55C16.6959 20.5714 16.8358 20.6316 16.9389 20.7388C17.0421 20.846 17.1 20.9913 17.1 21.1429C17.1 21.2944 17.0421 21.4398 16.9389 21.5469C16.8358 21.6541 16.6959 21.7143 16.55 21.7143ZM23.7 21.7143H19.85C19.7041 21.7143 19.5642 21.6541 19.4611 21.5469C19.3579 21.4398 19.3 21.2944 19.3 21.1429C19.3 20.9913 19.3579 20.846 19.4611 20.7388C19.5642 20.6316 19.7041 20.5714 19.85 20.5714H23.7C23.8459 20.5714 23.9858 20.6316 24.0889 20.7388C24.1921 20.846 24.25 20.9913 24.25 21.1429C24.25 21.2944 24.1921 21.4398 24.0889 21.5469C23.9858 21.6541 23.8459 21.7143 23.7 21.7143ZM23.7 18.2857H15.45C15.3041 18.2857 15.1642 18.2255 15.0611 18.1183C14.9579 18.0112 14.9 17.8658 14.9 17.7143C14.9 17.5627 14.9579 17.4174 15.0611 17.3102C15.1642 17.2031 15.3041 17.1429 15.45 17.1429H23.7C23.8459 17.1429 23.9858 17.2031 24.0889 17.3102C24.1921 17.4174 24.25 17.5627 24.25 17.7143C24.25 17.8658 24.1921 18.0112 24.0889 18.1183C23.9858 18.2255 23.8459 18.2857 23.7 18.2857Z" fill="currentColor" />
</svg>