<!-- Note: This is the official nebula theater mode icon -->
<?xml version="1.0" encoding="utf-8"?>
<!DOCTYPE svg PUBLIC "-//W3C//DTD SVG 1.1//EN" "http://www.w3.org/Graphics/SVG/1.1/DTD/svg11.dtd">
<svg width="32" height="32" viewBox="0 0 32 32" fill="none" xmlns="http://www.w3.org/2000/svg">
<g class="arrow-left">
  <path d="M11 19.56L9.94 18.5L12.44 16L9.94 13.5L11 12.44L14.56 16L11 19.56Z" fill="currentColor" />
</g>
<g class="arrow-right">
  <path d="M21 19.56L17.44 16L21 12.44L22.06 13.5L19.56 16L22.06 18.5L21 19.56Z" fill="currentColor" />
</g>
<path d="M23 9.5C23.663 9.5 24.2989 9.76339 24.7678 10.2322C25.2366 10.7011 25.5 11.337 25.5 12V20C25.5 20.663 25.2366 21.2989 24.7678 21.7678C24.2989 22.2366 23.663 22.5 23 22.5H9C8.33696 22.5 7.70107 22.2366 7.23223 21.7678C6.76339 21.2989 6.5 20.663 6.5 20V12C6.5 11.337 6.76339 10.7011 7.23223 10.2322C7.70107 9.76339 8.33696 9.5 9 9.5H23ZM23 8H9C7.93913 8 6.92172 8.42143 6.17157 9.17157C5.42143 9.92172 5 10.9391 5 12V20C5 21.0609 5.42143 22.0783 6.17157 22.8284C6.92172 23.5786 7.93913 24 9 24H23C24.0609 24 25.0783 23.5786 25.8284 22.8284C26.5786 22.0783 27 21.0609 27 20V12C27 10.9391 26.5786 9.92172 25.8284 9.17157C25.0783 8.42143 24.0609 8 23 8V8Z" fill="currentColor" />
</svg>