<!-- Note: This is the official nebula volume icon -->
<?xml version="1.0" encoding="utf-8"?>
<!DOCTYPE svg PUBLIC "-//W3C//DTD SVG 1.1//EN" "http://www.w3.org/Graphics/SVG/1.1/DTD/svg11.dtd">
<svg width="32" height="32" viewBox="0 0 32 32" fill="none" xmlns="http://www.w3.org/2000/svg">
<path d="M11 13L16 8V24L11 19H7V13H11ZM20 16C19.9958 15.3019 19.809 14.6171 19.4581 14.0137C19.1072 13.4102 18.6046 12.909 18 12.56V19.44C18.6046 19.091 19.1072 18.5898 19.4581 17.9863C19.809 17.3829 19.9958 16.6981 20 16V16ZM18 8.26V10.35C19.1651 10.7664 20.173 11.5328 20.8856 12.5443C21.5982 13.5557 21.9807 14.7627 21.9807 16C21.9807 17.2373 21.5982 18.4443 20.8856 19.4557C20.173 20.4672 19.1651 21.2336 18 21.65V23.74C19.712 23.2925 21.2273 22.2901 22.3088 20.8896C23.3904 19.4891 23.977 17.7695 23.977 16C23.977 14.2305 23.3904 12.5109 22.3088 11.1104C21.2273 9.70989 19.712 8.70746 18 8.26V8.26Z" fill="currentColor" />
</svg>